<svg xmlns="http://www.w3.org/2000/svg" viewBox="0 0 540.59 327.88"><defs><style>.cls-1{font-size:68px;fill:#231f20;font-family:Apercu-Light, Apercu;font-weight:300;letter-spacing:0.04em;}.cls-2{letter-spacing:0.03em;}.cls-3{letter-spacing:0.03em;}.cls-4{letter-spacing:0.03em;}.cls-5{letter-spacing:0.05em;}.cls-6{letter-spacing:0.01em;}.cls-7{letter-spacing:0.03em;}.cls-8{letter-spacing:0.03em;}.cls-9{letter-spacing:0.03em;}.cls-10{letter-spacing:0.05em;}</style></defs><title>Asset 14</title><g id="Layer_2" data-name="Layer 2"><g id="Layer_1-2" data-name="Layer 1"><path d="M69.35,208.94c-13.41-.72-10.8-15.48-10.21-24.7.66-10.41,1.49-20.8,2.35-31.19q2.74-33.28,5.89-66.53c.47-5,.93-10,1.42-15.08l-2,2h5.06c-.66-.65-1.32-1.31-2-2,3.47,36.38,7,72.79,9.42,109.26.66,9.68,4.4,27.46-10,28.24-2.52.14-2.54,4.09,0,3.95,6.85-.37,12.83-4.63,14.42-11.53.78-3.37.3-7.15.12-10.57-.51-10.17-1.33-20.33-2.14-30.49-1.92-24-4.08-48-6.3-71.91l-1.59-17a2,2,0,0,0-2-2H66.82a2,2,0,0,0-2,2C61.15,110.18,57.22,149,55,187.85a91,91,0,0,0-.37,11c.52,8.07,6.87,13.66,14.75,14.09,2.54.14,2.53-3.81,0-3.95"/><path d="M64.71,45.64V1.91c0-2.54-3.95-2.55-3.95,0V45.64c0,2.54,3.95,2.54,3.95,0"/><path d="M51.49,50.6V1.91c0-2.54-4-2.55-4,0V50.6c0,2.54,4,2.54,4,0"/><path d="M77.94,45.64V1.91c0-2.54-4-2.55-4,0V45.64c0,2.54,4,2.54,4,0"/><path d="M91.16,50.6V1.91a2,2,0,0,0-2-1.91,1.86,1.86,0,0,0-2,1.91V50.6c0,2.54,3.94,2.54,3.94,0,9.86,2.72,90.39,24.42,103.35.47.23-.44,3.47-6.63.85-12-7-14.23-46.34-3.86-94.93-1.71a423,423,0,0,1-86.38-5.13"/><path d="M74,45.68c-.32,6-9,6-9.28,0-.13-2.53-4.08-2.54-3.95,0a8.59,8.59,0,0,0,17.18,0c.14-2.54-3.81-2.53-4,0"/><path d="M87.22,45.68c-.32,6-9,6-9.28,0-.14-2.53-4.09-2.54-4,0a8.74,8.74,0,0,0,8.59,8.58c4.85,0,8.33-3.93,8.58-8.58.14-2.54-3.81-2.53-3.94,0"/><path d="M60.76,45.68a4.64,4.64,0,0,1-9.27,0c-.14-2.53-4.09-2.54-4,0,.25,4.65,3.73,8.58,8.58,8.58a8.74,8.74,0,0,0,8.59-8.58c.14-2.54-3.81-2.53-3.95,0"/><path d="M87.22,50.6c-.33,9.72-7.9,17.86-17.87,17.86S51.81,60.32,51.49,50.6c-.09-2.53-4-2.55-4,0,.4,11.87,9.64,21.81,21.81,21.81S90.76,62.47,91.16,50.6c.09-2.54-3.86-2.54-3.94,0"/><path d="M73.17,210.52c0,2.54,94.33,24.43,107.29.47.23-.43,3.47-6.63.85-12-7-14.24-46.34-3.87-94.93-1.71A424.46,424.46,0,0,1,0,192.18"/><path d="M431.43,51.71c0,2.54,94.33,24.43,107.29.47.23-.44,3.47-6.63.85-12-7-14.24-46.34-3.87-94.93-1.72a423,423,0,0,1-86.38-5.13"/><path d="M458.25,118.57c2.42,26.89,5.22,53.85,6.39,80.83.25,6,0,12-6.21,14.94-8.24,3.93-15.32-3.28-15.32-11.27,0-10.79,1.2-21.66,2-32.41,1.34-17.18,2.84-34.34,4.38-51.51.22-2.52-3.72-2.51-3.95,0-1.58,17.67-3.13,35.33-4.49,53-.55,7.13-1.08,14.27-1.5,21.41-.27,4.52-1.11,9.75-.08,14.23,3.09,13.38,21.95,15.49,27.8,3,2-4.24,1.4-9.07,1.17-13.6-.35-6.77-.84-13.53-1.35-20.29-1.47-19.46-3.19-38.9-4.93-58.34-.23-2.51-4.18-2.53-3.95,0"/><path d="M462.2,118.57V7.53a2,2,0,0,0-3-1.7L455.38,8h2l-3.84-2.15a2,2,0,0,0-2.39.31c-1,1.07-2,2.16-3,3.23l1.92-.51L445.74,8a2,2,0,0,0-2.22.91c-.36.76-2.2,4.64-1.07,3.42.93-1-.16-.2-1.26-.13-.73,0-1.47.17-2.19.25a2.06,2.06,0,0,0-2,2c-.08.57-.14,1.15-.21,1.72-.13,1.12-.93,2.67.08,1.73,1.25-1.16-2.83.79-3.42,1.06a2,2,0,0,0-.9,2.23c.28,1.44.57,2.89.86,4.33l.5-1.92-3.24,3a2,2,0,0,0-.3,2.39l2.15,3.85v-2l-2.15,3.85a2,2,0,0,0,1.7,3h0c2.54,0,2.55-4,0-4h0a2,2,0,0,0-1.7,3L432.58,40V38l-2.18,3.34a1.92,1.92,0,0,0,0,2c.72,1.12,1.45,2.23,2.18,3.35v-2c-.73,1.11-1.46,2.22-2.18,3.34a2,2,0,0,0,1.7,3h0l-2-2v58c0,6.26,2.32,12.33,9.37,13.43,6.65,1,14,.13,20.7.13,2.54,0,2.55-3.94,0-3.94h-11c-4.42,0-11.05,1.17-13.91-3.12-1.44-2.16-1.18-4.74-1.18-7.18V49a2,2,0,0,0-2-2h0l1.71,3L436,46.68a1.92,1.92,0,0,0,0-2c-.73-1.12-1.46-2.23-2.18-3.35v2L436,40a1.92,1.92,0,0,0,0-2l-2.18-3.34-1.71,3h0c2.54,0,2.55-4,0-4h0l1.71,3c.71-1.28,2.42-3.27,2.42-4.84s-1.68-3.51-2.42-4.84c-.11.8-.21,1.59-.32,2.39,1.1-1,3.29-2.34,3.75-3.86s-.57-3.9-.86-5.38c-.3.75-.61,1.49-.91,2.23,1.38-.63,3.82-1.2,4.71-2.55s.62-3.9.79-5.37l-2,2c1.41-.17,4.11.05,5.37-.78s1.9-3.3,2.55-4.72l-2.22.91c1.42.28,3.89,1.31,5.37.86s2.81-2.61,3.86-3.74l-2.39.3c1.28.72,3.27,2.43,4.84,2.43s3.51-1.68,4.84-2.43l-3-1.7v111c0,2.54,3.95,2.54,3.95,0"/><path d="M105.56,109.44c-9-2.1-19.64-4.7-23.09,0-2.73,3.72,0,10.81,2.57,14.54,15.11,21.81,80.26,7.27,80.39-.86C165.48,120.33,157.78,121.69,105.56,109.44Z"/><path d="M374.07,214.15c-12.32,5.36-16.6-9-20.21-17.51-4.07-9.59-8-19.26-11.88-28.93q-12.47-31-24.56-62.11-2.75-7-5.49-14.11l-.88,2.64,4.52-2.26L312.92,91c19.41,31,38.84,62,57.41,93.44,4.92,8.35,16.24,22.58,3.74,29.72-2.2,1.25-.45,4.79,1.76,3.53,6-3.4,9.4-9.9,7.73-16.77-.82-3.36-2.94-6.53-4.63-9.51-5-8.86-10.31-17.57-15.59-26.29-12.46-20.58-25.14-41-37.87-61.45q-4.5-7.23-9-14.44a2,2,0,0,0-2.65-.88l-4.52,2.27a2,2,0,0,0-.88,2.65c14.06,36.29,28,72.74,43.36,108.48a92.22,92.22,0,0,0,4.57,9.95c4.08,7,12.27,9.14,19.5,6,2.34-1,.56-4.54-1.76-3.53"/><path d="M319.05,62.63c4.07,8.84,1,19.5-8,24s-19.33.59-24-7.95c-1.21-2.23-4.74-.47-3.52,1.76,5.67,10.43,18.39,15.18,29.27,9.72s14.68-18.48,9.72-29.27c-1.06-2.31-4.59-.54-3.53,1.77"/><path d="M318.49,61.5c-4.65-8.54-26.09-36.64-35-32.17s-1,39.35,3.06,48.19c1.06,2.3-2.46,4.09-3.53,1.77-5-10.78-12.18-48-1.3-53.49S316.34,49.31,322,59.74c1.22,2.23,1.21,2.23,0,0"/><path d="M259.32,117.36c-2.42-.76-51.57,82.68-32.6,102.22.35.36,5.29,5.3,11.17,4.41,15.67-2.39,17.58-43.06,30.08-90.06a424.18,424.18,0,0,1,30.79-80.87"/><path d="M271.44,129.5c-8.95-2.1-19.64-4.71-23.09,0-2.73,3.72,0,10.8,2.57,14.54,15.12,21.81,80.26,7.27,80.39-.86C331.36,140.39,323.66,141.75,271.44,129.5Z"/><path d="M87.22,50.32c0,2.53,94.33,24.42,107.29.46.23-.43,3.47-6.62.85-12-7-14.23-46.34-3.86-94.93-1.71A424.49,424.49,0,0,1,14.05,32"/><text class="cls-1" transform="translate(42.46 312.3)">A<tspan class="cls-2" x="42.15" y="0">S</tspan><tspan class="cls-3" x="78.35" y="0">I</tspan><tspan class="cls-4" x="98.75" y="0">A</tspan><tspan class="cls-5" x="140.75" y="0">N </tspan><tspan class="cls-6" x="211.81" y="0">F</tspan><tspan class="cls-7" x="251.01" y="0">U</tspan><tspan class="cls-2" x="297.29" y="0">S</tspan><tspan class="cls-8" x="333.5" y="0">I</tspan><tspan class="cls-9" x="353.54" y="0">O</tspan><tspan class="cls-10" x="405.15" y="0">N</tspan></text></g></g></svg>