<svg xmlns="http://www.w3.org/2000/svg" xmlns:xlink="http://www.w3.org/1999/xlink" viewBox="0 0 343.39 150.1"><defs><style>.cls-1{fill:none;}.cls-2{fill:url(#linear-gradient);}.cls-3{fill:url(#linear-gradient-2);}.cls-4{fill:url(#linear-gradient-3);}.cls-5{fill:url(#linear-gradient-4);}.cls-6{clip-path:url(#clip-path);}.cls-7{clip-path:url(#clip-path-2);}.cls-8{fill:url(#linear-gradient-5);}.cls-9{clip-path:url(#clip-path-3);}.cls-10{fill:url(#linear-gradient-6);}</style><linearGradient id="linear-gradient" x1="159" y1="88.37" x2="240.21" y2="88.37" gradientUnits="userSpaceOnUse"><stop offset="0.01" stop-color="#231f20"/><stop offset="1" stop-color="#414042"/></linearGradient><linearGradient id="linear-gradient-2" x1="230.79" y1="73.64" x2="276.06" y2="73.64" xlink:href="#linear-gradient"/><linearGradient id="linear-gradient-3" x1="270.83" y1="73.09" x2="300.96" y2="73.09" xlink:href="#linear-gradient"/><linearGradient id="linear-gradient-4" x1="289.13" y1="87.91" x2="343.39" y2="87.91" xlink:href="#linear-gradient"/><clipPath id="clip-path" transform="translate(0 0)"><rect class="cls-1" width="150.29" height="150.1"/></clipPath><clipPath id="clip-path-2" transform="translate(0 0)"><path class="cls-1" d="M39.59,110.51c-9.76-9.75-14.45-21.76-14.45-35.46s4.69-25.52,14.45-35.27A48.13,48.13,0,0,1,75.05,25.14a48.18,48.18,0,0,1,35.28,14.64A48.17,48.17,0,0,1,125,75.05a48.16,48.16,0,0,1-14.63,35.46C100.57,120.27,88.75,125,75.05,125s-25.7-4.69-35.46-14.45M75.05,0C54.22,0,36.59,7.51,22.14,22.14,7.51,36.78,0,54.41,0,75.05,0,95.88,7.51,113.33,22.14,128S54.22,150.1,75.05,150.1,113.33,142.6,128,128C142.73,113.57,150.23,96,150.29,75.3v-.49c-.06-20.54-7.56-38.09-22.33-52.67S95.88,0,75.05,0Z"/></clipPath><linearGradient id="linear-gradient-5" x1="-741.05" y1="210.13" x2="-740.66" y2="210.13" gradientTransform="matrix(386.28, 0, 0, -386.28, 286251.24, 81244.43)" gradientUnits="userSpaceOnUse"><stop offset="0" stop-color="#00aeef"/><stop offset="0.01" stop-color="#00aeef"/><stop offset="0.13" stop-color="#48bcb2"/><stop offset="0.28" stop-color="#95ca70"/><stop offset="0.4" stop-color="#ced540"/><stop offset="0.49" stop-color="#f2db22"/><stop offset="0.53" stop-color="#ffde17"/><stop offset="0.59" stop-color="#fccf1c"/><stop offset="0.7" stop-color="#f5a72b"/><stop offset="0.84" stop-color="#e86741"/><stop offset="1" stop-color="#da1c5c"/></linearGradient><clipPath id="clip-path-3" transform="translate(0 0)"><path class="cls-1" d="M58.22,91.93a23.05,23.05,0,0,1-6.87-16.88A23.61,23.61,0,0,1,75.1,51.3,23.76,23.76,0,0,1,98.85,75.05,23.63,23.63,0,0,1,75.1,98.81a23.08,23.08,0,0,1-16.88-6.88m-8.3-42.06A34.38,34.38,0,0,0,39.38,75.05a34.24,34.24,0,0,0,10.54,25.18A34.24,34.24,0,0,0,75.1,110.77a34.24,34.24,0,0,0,25.18-10.54,33.84,33.84,0,0,0,10.63-25.18,34.12,34.12,0,0,0-10.63-25.18A34.24,34.24,0,0,0,75.1,39.33,34.09,34.09,0,0,0,49.92,49.87"/></clipPath><linearGradient id="linear-gradient-6" x1="-739.27" y1="209.97" x2="-738.88" y2="209.97" gradientTransform="matrix(183.84, 0, 0, -183.84, 135948.79, 38676.16)" xlink:href="#linear-gradient-5"/></defs><title>Asset 12</title><g id="Layer_2" data-name="Layer 2"><g id="Layer_1-2" data-name="Layer 1"><path class="cls-2" d="M203.77,64.56c-3.64,10.28-7.12,24.77-7.12,36.33,5.18-14.58,15.06-38.72,25.67-38.72,2.43,0,5.75,1.38,8.42,2.39-1,2.75-7.29,26.42-7.29,37.53,0,3.48.65,5.69,2.19,5.69,4,0,8.09-16.24,9.63-22.67,3.16.09,4.94.92,4.94,2.76-3.32,13-7.77,24.31-17.65,24.31-7.21,0-10-8.26-10-15.6,0-9.45,3.56-20.28,5.51-27.62-9.15,10.19-16,35.24-18.14,44.6a14.55,14.55,0,0,1-5.1,1c-6.72,0-8.75-7-8.75-15.51,0-12.11,4.13-27.25,4.78-29.55a.76.76,0,0,0,.08-.27c-9.07,10.18-16.11,35-18.3,44.32a14.08,14.08,0,0,1-5,1c-6.56,0-8.58-6.79-8.58-15.24,0-12.29,4.29-28,5.26-31.19.4-1.1,1.54-1.47,2.83-1.47,2.92,0,5.67,1.47,8.51,2.39-3.24,9.17-5.92,21.37-5.92,31.83,5.11-14.49,15-38.72,25.11-38.72C197.94,62.17,201.59,63.73,203.77,64.56Z" transform="translate(0 0)"/><path class="cls-3" d="M230.79,98.05c0-22.2,13-49.82,18.47-63.95a2.54,2.54,0,0,1,2.59-1.47c3.07,0,7.69,2.57,9.07,3.48-3.57,4.78-11.26,25.6-15,40.1,4.29-6,10.52-10.27,18.3-10.27,8.58,0,11.82,4.12,11.82,10.09,0,12.48-14.33,32.66-24.86,37.8a9.81,9.81,0,0,1-4,.83C237.92,114.66,230.79,109.89,230.79,98.05Zm11.1,2.39a22.53,22.53,0,0,0,1.86,9.63c11.25-7.8,21.3-27.34,21.3-36.52,0-1.83-.73-4.77-3.08-4.77-4.45,0-13.28,9.91-18.63,19.27A68.54,68.54,0,0,0,241.89,100.44Z" transform="translate(0 0)"/><path class="cls-4" d="M284.44,108.05c2.59,0,10.69-19.18,11.58-22.94,1.62.09,4.86.46,4.86,3.58-2.76,9.54-9.64,24.87-18.71,24.87s-11.34-9.73-11.34-14.87c0-19.36,10.77-47.16,18.47-64.59a2.54,2.54,0,0,1,2.59-1.47c3.07,0,7.69,2.57,9.07,3.48-8.59,13-19,48.27-19,64.23C281.93,102.82,281.93,108.05,284.44,108.05Z" transform="translate(0 0)"/><path class="cls-5" d="M327.35,95.66c-.16,2.39-.24,4.32-.24,6,0,4.59.65,6.42,1.78,6.42,3.16,0,7.53-15,8.1-17.16.57-1.83,1.05-3.85,1.54-5.78q4.86.56,4.86,3.58c-.17.46-.25,1-.41,1.56-2.19,8.44-5.67,21.93-15.22,21.93-6.8,0-11.66-8.35-11.82-15.78-2.27,5.23-5.83,13.12-9,15.51a10,10,0,0,1-5.51,1.65c-7,0-12.31-7.07-12.31-15.14,0-14.59,12.47-36.15,26.24-36.15,3.72,0,7.53,1.65,11.25,5.41a19.38,19.38,0,0,0-3.15-.28c-17.09,0-22.84,26.25-22.84,35.51,0,3.49.73,5.14,2.76,5.14,1.86,0,5.5-9,7.93-15,3-7.25,8.34-19.54,9.72-22.11.4-1.1,1.45-1.47,2.75-1.47,2.75,0,6.72,1.84,8.42,2.48C330.27,77.13,327.76,90,327.35,95.66Z" transform="translate(0 0)"/><g id="Artwork_7" data-name="Artwork 7"><g class="cls-6"><g class="cls-7"><rect class="cls-8" width="150.29" height="150.1"/></g><g class="cls-9"><rect class="cls-10" x="39.38" y="39.33" width="71.53" height="71.44"/></g></g></g></g></g></svg>