<svg xmlns="http://www.w3.org/2000/svg" xmlns:xlink="http://www.w3.org/1999/xlink" viewBox="0 0 386.28 385.8"><defs><style>.cls-1{fill:none;}.cls-2{clip-path:url(#clip-path);}.cls-3{clip-path:url(#clip-path-2);}.cls-4{fill:url(#linear-gradient);}.cls-5{clip-path:url(#clip-path-3);}.cls-6{fill:url(#linear-gradient-2);}</style><clipPath id="clip-path" transform="translate(0 0)"><rect class="cls-1" width="386.28" height="385.8"/></clipPath><clipPath id="clip-path-2" transform="translate(0 0)"><path class="cls-1" d="M101.75,284C76.68,259,64.62,228.1,64.62,192.9s12.06-65.59,37.13-90.66c25.56-25.56,55.94-37.62,91.15-37.62s65.58,12.54,90.66,37.62,37.62,55.45,37.62,90.66S309.12,258.48,283.56,284c-25.08,25.08-55.46,37.14-90.66,37.14S126.83,309.12,101.75,284M192.9,0C139.37,0,94,19.29,56.9,56.9,19.29,94.52,0,139.85,0,192.9c0,53.53,19.29,98.38,56.9,136s82.47,56.91,136,56.91,98.38-19.29,136-56.91c37.95-37,57.24-82.1,57.39-135.36v-1.26c-.15-52.78-19.44-97.9-57.39-135.37C291.28,19.29,246.43,0,192.9,0Z"/></clipPath><linearGradient id="linear-gradient" x1="-732.32" y1="333.7" x2="-731.32" y2="333.7" gradientTransform="matrix(386.28, 0, 0, -386.28, 282878.46, 129092.94)" gradientUnits="userSpaceOnUse"><stop offset="0" stop-color="#00aeef"/><stop offset="0.01" stop-color="#00aeef"/><stop offset="0.13" stop-color="#48bcb2"/><stop offset="0.28" stop-color="#95ca70"/><stop offset="0.4" stop-color="#ced540"/><stop offset="0.49" stop-color="#f2db22"/><stop offset="0.53" stop-color="#ffde17"/><stop offset="0.59" stop-color="#fccf1c"/><stop offset="0.7" stop-color="#f5a72b"/><stop offset="0.84" stop-color="#e86741"/><stop offset="1" stop-color="#da1c5c"/></linearGradient><clipPath id="clip-path-3" transform="translate(0 0)"><path class="cls-1" d="M149.65,236.28C137.71,224.34,132,209.65,132,192.9s5.74-31.22,17.68-43.15c12.16-12.17,26.62-17.9,43.37-17.9a61.13,61.13,0,0,1,61.06,61.05c0,16.75-5.74,31.21-17.91,43.38C224.24,248.21,209.78,254,193,254s-31.44-5.74-43.37-17.67M128.3,128.17c-17.9,17.91-27.08,39.48-27.08,64.73,0,25.47,9.18,46.82,27.08,64.72S167.55,284.7,193,284.7s46.83-9.18,64.73-27.08c18.13-17.67,27.31-39.25,27.31-64.72,0-25.25-9.18-46.82-27.31-64.73-17.9-17.9-39.25-27.08-64.73-27.08S146,110.27,128.3,128.17"/></clipPath><linearGradient id="linear-gradient-2" x1="-730.22" y1="333.55" x2="-729.22" y2="333.55" gradientTransform="matrix(183.84, 0, 0, -183.84, 134348.15, 61513.69)" xlink:href="#linear-gradient"/></defs><title>Artwork 7</title><g id="Layer_2" data-name="Layer 2"><g id="Layer_1-2" data-name="Layer 1"><g id="Artwork_7" data-name="Artwork 7"><g class="cls-2"><g class="cls-3"><rect class="cls-4" width="386.28" height="385.8"/></g><g class="cls-5"><rect class="cls-6" x="101.22" y="101.09" width="183.84" height="183.61"/></g></g></g></g></g></svg>