<svg xmlns="http://www.w3.org/2000/svg" xmlns:xlink="http://www.w3.org/1999/xlink" viewBox="0 0 556.64 116.59"><defs><style>.cls-1{fill:url(#linear-gradient);}.cls-2{fill:url(#linear-gradient-2);}.cls-3{fill:url(#linear-gradient-3);}.cls-4{fill:url(#linear-gradient-4);}.cls-5{fill:url(#linear-gradient-5);}.cls-6{font-size:68px;fill:#474649;font-family:Apercu-Light, Apercu;font-weight:300;letter-spacing:0.03em;}.cls-7{letter-spacing:0.01em;}.cls-8{letter-spacing:0.03em;}.cls-9{letter-spacing:0.03em;}.cls-10{letter-spacing:0.04em;}.cls-11{letter-spacing:0.05em;}</style><linearGradient id="linear-gradient" y1="58.29" x2="135.12" y2="58.29" gradientUnits="userSpaceOnUse"><stop offset="0.01" stop-color="#231f20"/><stop offset="1" stop-color="#414042"/></linearGradient><linearGradient id="linear-gradient-2" x1="123.41" y1="71.61" x2="204.63" y2="71.61" xlink:href="#linear-gradient"/><linearGradient id="linear-gradient-3" x1="195.21" y1="56.89" x2="240.47" y2="56.89" xlink:href="#linear-gradient"/><linearGradient id="linear-gradient-4" x1="235.25" y1="56.33" x2="265.37" y2="56.33" xlink:href="#linear-gradient"/><linearGradient id="linear-gradient-5" x1="253.55" y1="71.15" x2="307.8" y2="71.15" xlink:href="#linear-gradient"/></defs><title>Asset 12</title><g id="Layer_2" data-name="Layer 2"><g id="Layer_1-2" data-name="Layer 1"><path class="cls-1" d="M127.23,66.64c5.66.79,7.89,3,7.89,5.13-5.39,13.27-23.66,22.6-46,26.28-13.54,12.62-29.31,18.54-43,18.54-18.93,0-33.92-11.17-33.92-31.42a30.19,30.19,0,0,1,.14-3.55C4.07,73.34,0,63.62,0,53.5,0,19.58,38.91,0,67.82,0,94.77,0,115,14.59,115,40.88c0,18.14-8.81,38-18.8,49.68C112,86.09,123.42,77.68,127.23,66.64ZM36.15,47.19c2.23,0,9.46,2.23,9.46,4.86a2,2,0,0,1-.92,1.58C39,58.1,33.25,72.82,31.94,86.23c10.38,5.12,24.05,8,37.72,8,1.45,0,2.76-.13,4.21-.13C83.2,83.46,96.35,56.52,96.35,35.36c0-15-6.58-28.13-27.34-28.13-24.19,0-55.87,28.92-55.87,52.58a26.23,26.23,0,0,0,2,9.85C18.14,61.78,26.68,47.19,36.15,47.19Zm9.46,63.75c6.7,0,14.85-3.82,22.87-11.18-12.88,0-26-1.84-36.93-6C32.07,105.55,37.72,110.94,45.61,110.94Z"/><path class="cls-2" d="M168.19,47.8c-3.65,10.28-7.13,24.78-7.13,36.34,5.19-14.59,15.06-38.72,25.67-38.72,2.43,0,5.75,1.37,8.42,2.38-1,2.75-7.28,26.43-7.28,37.53,0,3.49.64,5.69,2.18,5.69,4,0,8.1-16.24,9.64-22.67,3.16.1,4.94.92,4.94,2.76-3.32,13-7.78,24.31-17.66,24.31-7.2,0-10-8.26-10-15.6,0-9.45,3.57-20.27,5.51-27.61-9.15,10.18-15.95,35.23-18.14,44.59a14.47,14.47,0,0,1-5.1,1c-6.72,0-8.74-7-8.74-15.51,0-12.11,4.13-27.25,4.77-29.54a.83.83,0,0,0,.08-.28c-9.07,10.19-16.11,35-18.3,44.32a14.08,14.08,0,0,1-5,1c-6.56,0-8.58-6.79-8.58-15.23,0-12.3,4.29-28,5.26-31.2.41-1.1,1.54-1.47,2.84-1.47,2.91,0,5.67,1.47,8.5,2.39-3.24,9.17-5.91,21.38-5.91,31.84,5.1-14.5,15-38.72,25.1-38.72C162.36,45.42,166,47,168.19,47.8Z"/><path class="cls-3" d="M195.21,81.29c0-22.2,12.95-49.82,18.46-63.95a2.56,2.56,0,0,1,2.59-1.47c3.08,0,7.69,2.57,9.07,3.49-3.56,4.77-11.25,25.6-15,40.09,4.29-6,10.53-10.27,18.3-10.27,8.58,0,11.82,4.13,11.82,10.09,0,12.48-14.33,32.67-24.86,37.8a9.78,9.78,0,0,1-4.05.83C202.33,97.9,195.21,93.13,195.21,81.29Zm11.09,2.39a22.65,22.65,0,0,0,1.86,9.63c11.26-7.8,21.3-27.34,21.3-36.52,0-1.83-.73-4.77-3.08-4.77-4.45,0-13.28,9.91-18.62,19.27A67.65,67.65,0,0,0,206.3,83.68Z"/><path class="cls-4" d="M248.85,91.29c2.59,0,10.69-19.17,11.58-22.94,1.62.1,4.86.46,4.86,3.58-2.75,9.55-9.64,24.87-18.71,24.87s-11.33-9.73-11.33-14.87c0-19.36,10.77-47.16,18.46-64.59a2.56,2.56,0,0,1,2.59-1.47c3.08,0,7.69,2.57,9.07,3.49-8.58,13-19,48.26-19,64.23C246.34,86.06,246.34,91.29,248.85,91.29Z"/><path class="cls-5" d="M291.77,78.91c-.16,2.38-.25,4.31-.25,6,0,4.59.65,6.42,1.79,6.42,3.15,0,7.53-15,8.09-17.15.57-1.84,1.06-3.86,1.54-5.79q4.86.56,4.86,3.58c-.16.46-.24,1-.4,1.56-2.19,8.44-5.67,21.93-15.23,21.93-6.8,0-11.66-8.35-11.82-15.78-2.27,5.23-5.83,13.12-9,15.51a9.94,9.94,0,0,1-5.5,1.65c-7.05,0-12.31-7.07-12.31-15.14,0-14.59,12.47-36.15,26.23-36.15,3.73,0,7.53,1.65,11.26,5.41a19.46,19.46,0,0,0-3.16-.27c-17.08,0-22.83,26.24-22.83,35.51,0,3.48.73,5.13,2.75,5.13,1.86,0,5.51-9,7.93-15,3-7.25,8.34-19.55,9.72-22.12.41-1.1,1.46-1.47,2.75-1.47,2.76,0,6.73,1.84,8.43,2.48C294.68,60.37,292.17,73.22,291.77,78.91Z"/><text class="cls-6" transform="translate(312.8 94.8)">D<tspan class="cls-7" x="46.85" y="0">E</tspan><tspan class="cls-8" x="86.39" y="0">S</tspan><tspan class="cls-9" x="122.59" y="0">I</tspan><tspan class="cls-10" x="142.63" y="0">G</tspan><tspan class="cls-11" x="193.31" y="0">N</tspan></text></g></g></svg>