<svg xmlns="http://www.w3.org/2000/svg" xmlns:xlink="http://www.w3.org/1999/xlink" viewBox="0 0 299.93 111.67"><defs><style>.cls-1{fill:url(#linear-gradient);}.cls-2{fill:url(#linear-gradient-2);}.cls-3{fill:url(#linear-gradient-3);}.cls-4{fill:url(#linear-gradient-4);}.cls-5{fill:url(#linear-gradient-5);}</style><linearGradient id="linear-gradient" x1="115.54" y1="70.56" x2="196.75" y2="70.56" gradientUnits="userSpaceOnUse"><stop offset="0.01" stop-color="#231f20"/><stop offset="1" stop-color="#414042"/></linearGradient><linearGradient id="linear-gradient-2" x1="187.33" y1="55.84" x2="232.6" y2="55.84" xlink:href="#linear-gradient"/><linearGradient id="linear-gradient-3" x1="227.37" y1="55.29" x2="257.5" y2="55.29" xlink:href="#linear-gradient"/><linearGradient id="linear-gradient-4" x1="245.67" y1="70.11" x2="299.93" y2="70.11" xlink:href="#linear-gradient"/><linearGradient id="linear-gradient-5" y1="55.84" x2="111.81" y2="55.84" gradientUnits="userSpaceOnUse"><stop offset="0.01" stop-color="#00aeef"/><stop offset="0.13" stop-color="#48bcb2"/><stop offset="0.28" stop-color="#95ca70"/><stop offset="0.4" stop-color="#ced540"/><stop offset="0.49" stop-color="#f2db22"/><stop offset="0.53" stop-color="#ffde17"/><stop offset="0.59" stop-color="#fccf1c"/><stop offset="0.7" stop-color="#f5a72b"/><stop offset="0.84" stop-color="#e86741"/><stop offset="1" stop-color="#da1c5c"/></linearGradient></defs><title>Asset 16</title><g id="Layer_2" data-name="Layer 2"><g id="Layer_1-2" data-name="Layer 1"><path class="cls-1" d="M160.31,46.75c-3.64,10.28-7.12,24.78-7.12,36.34,5.18-14.59,15.06-38.72,25.67-38.72,2.43,0,5.75,1.37,8.42,2.38-1,2.76-7.29,26.43-7.29,37.53,0,3.49.65,5.69,2.19,5.69,4,0,8.09-16.24,9.63-22.66,3.16.09,4.94.91,4.94,2.75-3.32,13-7.77,24.31-17.65,24.31-7.21,0-10-8.25-10-15.59,0-9.45,3.56-20.28,5.5-27.62-9.15,10.18-15.95,35.23-18.13,44.59a14.33,14.33,0,0,1-5.1,1c-6.73,0-8.75-7-8.75-15.51,0-12.11,4.13-27.25,4.78-29.54a.83.83,0,0,0,.08-.28c-9.07,10.19-16.11,35-18.3,44.32a13.86,13.86,0,0,1-5,1c-6.56,0-8.58-6.79-8.58-15.23,0-12.3,4.29-28,5.26-31.2.4-1.1,1.54-1.47,2.83-1.47,2.92,0,5.67,1.47,8.51,2.39-3.24,9.17-5.92,21.38-5.92,31.84,5.11-14.5,15-38.72,25.11-38.72C154.48,44.37,158.13,45.93,160.31,46.75Z"/><path class="cls-2" d="M187.33,80.24c0-22.2,13-49.82,18.47-63.95a2.54,2.54,0,0,1,2.59-1.47c3.07,0,7.69,2.57,9.07,3.49-3.57,4.77-11.26,25.6-15,40.1,4.29-6,10.52-10.28,18.3-10.28,8.58,0,11.82,4.13,11.82,10.09,0,12.48-14.34,32.67-24.86,37.81a9.81,9.81,0,0,1-4.05.82C194.46,96.85,187.33,92.08,187.33,80.24Zm11.1,2.39a22.5,22.5,0,0,0,1.86,9.63c11.25-7.79,21.29-27.34,21.29-36.51,0-1.84-.72-4.78-3.07-4.78-4.46,0-13.28,9.91-18.63,19.27A68.65,68.65,0,0,0,198.43,82.63Z"/><path class="cls-3" d="M241,90.25c2.59,0,10.69-19.18,11.58-22.94,1.62.09,4.85.46,4.85,3.57-2.75,9.55-9.63,24.87-18.7,24.87S227.37,86,227.37,80.89c0-19.36,10.77-47.17,18.47-64.6a2.54,2.54,0,0,1,2.59-1.47c3.07,0,7.69,2.57,9.07,3.49-8.59,13-19,48.26-19,64.23C238.47,85,238.47,90.25,241,90.25Z"/><path class="cls-4" d="M283.89,77.86c-.16,2.38-.24,4.31-.24,6,0,4.59.65,6.43,1.78,6.43,3.16,0,7.53-15,8.1-17.16.57-1.84,1.05-3.86,1.54-5.78,3.24.36,4.86,1.56,4.86,3.57-.17.46-.25,1-.41,1.56-2.19,8.45-5.67,21.93-15.22,21.93-6.8,0-11.66-8.35-11.82-15.78-2.27,5.23-5.83,13.12-9,15.51A10,10,0,0,1,258,95.75c-7,0-12.31-7.06-12.31-15.14,0-14.59,12.47-36.15,26.24-36.15,3.72,0,7.53,1.65,11.25,5.41A19.34,19.34,0,0,0,280,49.6c-17.09,0-22.84,26.24-22.84,35.51,0,3.48.73,5.14,2.75,5.14,1.87,0,5.51-9,7.94-15,3-7.25,8.34-19.55,9.72-22.12.4-1.1,1.45-1.46,2.75-1.46,2.75,0,6.72,1.83,8.42,2.47C286.81,59.32,284.3,72.17,283.89,77.86Z"/><path class="cls-5" d="M95.2,16.47c11,10.89,16.61,24,16.61,39.37A52.93,52.93,0,0,1,95.2,95.2c-10.89,10.89-23.87,16.47-39.36,16.47S27.36,106.09,16.47,95.2,0,71.33,0,55.84,5.58,27.36,16.47,16.47A53.33,53.33,0,0,1,55.84,0C71.33,0,84.31,5.58,95.2,16.47ZM29.45,29.59A35.76,35.76,0,0,0,18.71,55.84,36.69,36.69,0,0,0,55.84,93,35.7,35.7,0,0,0,82.08,82.22,35.83,35.83,0,0,0,93,55.84,35.86,35.86,0,0,0,82.08,29.59,35.83,35.83,0,0,0,55.84,18.71,35.88,35.88,0,0,0,29.45,29.59Z"/></g></g></svg>