<svg xmlns="http://www.w3.org/2000/svg" viewBox="0 0 637.17 566.57"><defs><style>.cls-1{opacity:0.57;}.cls-2{fill:#e6e5ea;}.cls-3{fill:#b4b3e0;}.cls-4{fill:#f20a69;}.cls-5{fill:#f9bda0;}.cls-6{fill:#f4a198;}.cls-7{fill:#190f72;}.cls-8{opacity:0.28;}.cls-9{fill:#666;}.cls-10{fill:#fff;}.cls-11{fill:#b5b7b8;}.cls-12{fill:#ff0076;}.cls-13{opacity:0.27;}.cls-14{fill:#f78f80;}.cls-15{opacity:0.21;}.cls-16{fill:#e1cfb5;}.cls-17{fill:#3ed2f0;}</style></defs><title>Asset 1</title><g id="Layer_2" data-name="Layer 2"><g id="OBJECTS"><g class="cls-1"><path class="cls-2" d="M17.63,58l419.25-.12c42.39,0,84.49,1.64,126.79,2.31,41.66.65,61.47-15.53,62,31.06.67,58-3.62,114.07-7,171.82-1.63,27.51-4.48,54.54-7.06,82.08-2,21.4,7.15,85.77-12.41,97.62-19.71,11.94-74.48-4.91-97.44-6.55-30.52-2.16-60.48-.76-90.72,3-54.65,6.78-106.78,22.91-162.51,18.46-61.65-4.92-121.11,11.07-181.39,4.67-9.76-1-47-3.69-53.62-10.4-6.36-6.46-1.41-8.58-3.3-17.28C2.38,398.47,18.65,341.55,21.3,304c5.79-82,5.27-163.8,5.24-246"/></g><path class="cls-3" d="M352.83,104c-.15,13.24-3.17,26.37-2.31,39.63.5,7.62-.67,13.66,6.79,16.47,8.16,3.08,17.36,2.22,25.91,1.5,3.87-.33,7.79-1.12,11.66-1.29,1.61-.07,5.54,1.16,6.91.34,3.2-1.92,3.59-12.36,3.9-15.66.76-8.09,1.05-16.24,1.1-24.36,0-5.21,1.51-15-1.15-19.82-1.93-3.46-6.27-3-10.05-3.09-5-.18-41.95-.7-41.91,7.14"/><path class="cls-4" d="M417.49,104c-.15,13.24-3.17,26.37-2.3,39.63.49,7.62-.68,13.66,6.78,16.47,8.16,3.08,17.36,2.22,25.91,1.5,3.88-.33,7.79-1.12,11.66-1.29,1.62-.07,5.55,1.16,6.91.34,3.2-1.92,3.6-12.36,3.91-15.66.75-8.09,1-16.24,1.09-24.36,0-5.21,1.51-15-1.15-19.82-1.93-3.46-6.27-3-10.05-3.09-5-.18-42.8-1.55-42.76,6.28"/><path class="cls-3" d="M486.29,104c-.14,13.24-3.16,26.37-2.3,39.63.5,7.62-.67,13.66,6.78,16.47,8.17,3.08,17.36,2.22,25.92,1.5,3.87-.33,7.78-1.12,11.66-1.29,1.61-.07,5.54,1.16,6.9.34,3.21-1.92,3.6-12.36,3.91-15.66.76-8.09,1.05-16.24,1.1-24.36,0-5.21,1.5-15-1.16-19.82-1.92-3.46-6.27-3-10.05-3.09-5-.18-42.8-1.55-42.76,6.28"/><path class="cls-3" d="M283.68,104c-.14,13.24-3.16,26.37-2.3,39.63.5,7.62-.67,13.66,6.79,16.47,8.16,3.08,17.36,2.22,25.91,1.5,3.87-.33,7.79-1.12,11.66-1.29,1.61-.07,5.54,1.16,6.9.34,3.21-1.92,3.6-12.36,3.91-15.66.76-8.09,1.05-16.24,1.1-24.36,0-5.21,1.51-15-1.15-19.82-1.93-3.46-6.28-3-10.05-3.09-5-.18-42.8-1.55-42.77,6.28"/><path class="cls-3" d="M487.24,180.77c-.14,13.23-3.16,26.37-2.3,39.62.5,7.63-.67,13.67,6.79,16.48,8.16,3.08,17.35,2.22,25.91,1.5,3.87-.33,7.79-1.12,11.66-1.29,1.61-.07,5.54,1.16,6.9.34,3.21-1.92,3.6-12.36,3.91-15.66.76-8.09,1-16.24,1.1-24.36,0-5.22,1.51-15.05-1.15-19.82-1.93-3.46-6.28-3-10-3.09-5-.18-42.8-1.56-42.77,6.28"/><path class="cls-5" d="M283.56,222.4c9.05-12.63,18.86,25.89,19.72,29.39,1.7,6.93,1.92,14.46,4.47,21.14,1,2.54,2,5.11,4.17,6.89,2,1.61,6.23,1.56,7.76,3.38,4.87,5.8-3.21,6.61-4.66,11.53-1.31,4.41,4.68,13.22,5.79,18.29,1.87,8.42-9.3,13.55-16.22,19.61-4.76,4.17-10.22,5.27-15.78,8-6.75,3.3,3.46,9.17,4,17,.34,5.13,4.7,15.58,2.47,20.32-1.85,3.93-4,1.46-8.33,0a85.78,85.78,0,0,0-11.43-3.2c-9.16-1.77-18.36-3.23-27.52-5-3.34-.66-15.64-.86-16.53-4.39-.44-1.79,2.37-3.77,3.08-5.14A71.21,71.21,0,0,0,239.4,347c2.59-9.06,3.65-12.76-.24-21.22s-5.24-17.23-5.62-26.52c-.76-18.52-2-41,4.69-58.58,5.44-14.28,27.85-20,41.91-18.23"/><path class="cls-6" d="M284,225.34l-3.41.25c-14.15-.7-36.08,6.62-40.45,21.25-5.06,16.91-2.84,37.52-.8,55.19,12.82-8.54,26.1-24.42,31-33.94l13.35-22.27c2.19-5.71,5.56-6.94,13.95-10.61C295.34,224.39,294,222.53,284,225.34Z"/><path class="cls-6" d="M320.93,316.07c2.53-2.25-20.93,23-44.62,20.37-8.56-.95-11.56,22.28-8.16,31.21,3.25,8.5,7.73,7.49,11.61,7.94,5.45.62,12.83,2.56,15.73,0,6.08-5.4-11.77-28.83,0-34.24C316.92,331.49,320.93,316.07,320.93,316.07Z"/><path class="cls-5" d="M409,202.93c6.21-8.31,8-21.69,10.27-31.62,2-8.72,3.63-23.87,10.28-30.52,6.82,0,.13,21.76,0,22.91-2.29,16.89.15,3.67,7.6,7.77,1,3.65.3,5.74-.76,9.5-1.53,5.41-2.92,3.34.62-2.22,4.35-6.84,13.44-4.32,9.92,2.22-.75,1.4-7.29,5.75-8.26,7.22s10.1-12.07,13.3-2.95c-.71,2.83-12.11,10.72-8.57,7.51,2-1.78,11-8.76,11-4.29,2.54,8.17-9.68,15.72-13.11,19-3.23,3.12-7.24,6.47-8.89,10.78-1.06,2.78.56,6.3-1.47,8.79-5.82,7.18-14.36-2.1-16.45-7.7-1.28-3.39-.65-19.84-5.43-18.73"/><path class="cls-6" d="M454.61,190.93a9.88,9.88,0,0,0-.78-3.73,27,27,0,0,1-9.1,13.3c-4.36,3.23-13.71,8.64-11.82,13.63.23.59.46,1.17.69,1.72,2-3,5-5.56,7.64-7.95C444.49,204.9,455.67,198.26,454.61,190.93Z"/><path class="cls-7" d="M21.82,439.25c23,0,45.92,1.1,68.78,1.75,22.24.64,44.37.44,66.7.9,52.42,1.08,105.65.22,157.64-4.21,49.78-4.25,99.92-6,150.25-7.59,24.55-.8,49-1,73.54-.74,10.34.09,22.83-.2,33.17-.84,9.24-.58,22.12.09,30.63-1.5-4.6,5.12-18.62,4.07-27.34,4.16-12,.12-24.58.5-36.55,1.07-26.19,1.25-52.58,2.56-78.95,3.23-12.73.32-25.1-1.16-37.63-1-11.55.14-22.89,1.21-34.62,1.18-24.66-.07-48.67,1.68-73.19,2.59-54.81,2-108.16,9.33-163.27,9.09-27.25-.12-54.07-3.56-81.26-3.6-12.26,0-23.73-.47-35.92-1.13-2.77-.15-13.69,0-15.35-1.43-1.19-1,1.77-3.42,1.66-4.62"/><path class="cls-7" d="M182.49,551.09C162.33,502,138,369.73,212.49,361.15c24.19-2.78,46.22,10.89,69.35,10.48,26.31-.47,42.2-21.31,61.28-37.54,45.71-38.88,44.11-86.34,57.16-142.19,67.78-.47,29.71,89.24,17.49,122.54-12.7,34.59-26.2,54.29-51.94,78.15-18.77,17.4-33.9,28-37.87,53-3.43,21.57.62,51.91,3.27,73.76,2.87,23.71,14.12,34.08-9.8,42-20.71,6.83-130.59,9.82-137.36-9"/><path class="cls-7" d="M25.23,73.34c0,38.5-1.43,77.06-.59,115.53.68,31.49,2.13,62.94,2.38,94.47.22,27.59-1.94,57-3.71,84.34-.7,10.82-6.14,67.66-.71,75.08,7.35-2.06,6.45-65.25,6.93-74.86,2-40.55,3.65-81.11,3.43-121.94-.18-33.37,1.44-71.12-.79-103.85-1.24-18.34-2.45-36.17-2.28-54.74,0-3.26,2-20.7.05-23.05C26.4,60,24.4,72.7,24.37,76.76"/><path class="cls-7" d="M7.67,65.86c20.33-.39,42.21-1.11,62.51-.44,10.37.34,20.61,1.47,31.14,1.27,9.4-.18,19.14-.36,28.53-.72,22.31-.84,44.37-2.24,66.64-3.17C216,62,235.45,62,255.16,62q69.35,0,138.68-.09c21,0,41.89.58,63,.57,22.52,0,45.31-.29,67.78.28,20.37.52,40.67.2,61.1.2H616.8c7.16,0,23.17-1.23,19.94,2.06s-30.54,2.4-40.13,2.72c-19.06.64-36.48.77-55.77.5-43.2-.62-86-.94-129.08-2.36-45.48-1.49-91.16-2-137-1.95-21.81,0-42,1.13-63.66,1.69-23,.58-46.06.37-69,1-44.36,1.14-88.3-1.23-132.9-1.23"/><path class="cls-7" d="M613.21,70c1.31,12.38-1.43,28.25-1.42,41,0,18.12,0,36.23.13,54.34.2,32-.42,64.93-2.46,96.85-2.11,33-6.72,65.69-9.48,98.58-1.35,16.06-3,32.1-4.43,48.18-.37,4.22-4.44,27.12,3.58,21.13,9.46-7.06,4.73-51.19,5.17-62.22,1.38-34.88-1-70.35.35-105.47,1.38-34.68,5.9-68.62,5.72-103.46-.16-31.53-.43-63.14,0-94.15"/><g class="cls-8"><path d="M355.54,402.9c11.91-10.87,26.66-23,36.93-38.42a268.87,268.87,0,0,0,28.62-58c4.12-12.07,28.58-71.74,13.39-96.88,3,1.1-51.63,122.69-58.38,133.3-28.16,44.25-77.22,67.32-82.45,122.12-2.06,21.61-4.58,54.87-1.13,76.94,3.2,20.43.16,25.54,17.83,21.57,12.3-2.76,28.39-6.18,26-17.11-13.81-62.71-9.51-70.53-9.82-86.28-.18-9.4,1.21-16.44,4.63-25.82C336.55,419.54,344.52,413,355.54,402.9Z"/></g><path class="cls-3" d="M215.14,214.42C163.65,160.24,232.1,79,176.63,25.29,129.5-20.31,58.51.15,24.53,51.65-4.31,95.35-18.94,204,45.55,224.4c46.62,14.74,62.34-29.89,100.28-30.27,30.57-.31,43.56,41.46,69.31,20.29"/><path class="cls-9" d="M99.37,68.14C71.78,73,68.82,105.46,78.88,130c2.88,7,18.62,20.86,18.62,20.86,2.45,10.34.22,8.13.63,15.2.41,6.84,2.23,5.41,7.94,7.15,2.61.8,16.08-.76,19-1.86,6-2.23,4.1-9,4.2-24.68,0,0,15.49-24.23,14.8-40.51-.55-12.79-3.42-25.88-14.53-32.72-7-4.31-14.62-5.51-30.17-5.34"/><path class="cls-10" d="M97.84,151.07c0,.2.09.39.14.58L129.06,150c0-1,0-2.07,0-3.18,0,0,16.71-24.58,16-41.08-.55-13-3.47-26.25-14.73-33.19-7.09-4.37-14.82-5.58-30.6-5.41-28,5-31,37.84-20.78,62.77C81.87,137.05,97.84,151.07,97.84,151.07Z"/><path class="cls-7" d="M103.15,155.64c3.69-5,3.26-13.28,3.25-19.17,0-6.52.15-14.35-2.29-20.53a2.81,2.81,0,0,0-4.11-1.19c-15.68,8.75,15.86,22.3,11.19,4.29a2.64,2.64,0,0,0-3-1.62c-3.52.55-5.21,5.46-2.72,8.15,2.23,2.4,7.74,1.33,10.42.38,3.09-1.1,6.51-5.18,3.22-8.29-2.48-2.34-5.4.5-6.49,2.75-4.3,8.79,11.51,9.89,13.67,2.23.81-2.86-.38-7.13-3.9-7.29-3.27-.15-4,3.07-4.2,5.65-.49,5.69.38,11.59.89,17.25.43,4.71,1.51,10,.72,14.75-.43,2.58,4.55,3,5,.37,1.33-7.93-1.1-17-1.54-25-.11-2-.21-3.94-.13-5.91,0-.47,1-6.83-1.74-3.06-.22.29.24,1.91,0,2.54-.39.86-4,3-4.52,1.71-.23-.55.4-1.36.54-1.84.27-1,1.61-1.22.28-1l-2.39-.69c1.62,1.33-3,2.51-3.53,2.59a6.19,6.19,0,0,1-2,.17c-.28-.13-.85-1.44-.46-1.51l-3-1.62c.83,3.21.12,5.61-3.39,3.83s-2.59-4.07.4-5.74l-4.1-1.19c2.2,5.58,2.11,12.4,2.19,18.29.06,5.17.86,13.92-2.41,18.38-1.76,2.4,2.66,4.37,4.15,2.33Z"/><path class="cls-11" d="M130.2,158.32c-.23,0-.45,0-.67,0-.59.07-1.08.34-1.66.42a22.23,22.23,0,0,1-3.16,0,31.74,31.74,0,0,0-3.27.4c-1.85.19-3.84,0-5.71,0a41.85,41.85,0,0,0-6.72.09,37.33,37.33,0,0,1-6.27.29H97.79c0,2.46-.71,3.29-.6,7l32.91-.71A68,68,0,0,0,130.2,158.32Z"/><path class="cls-11" d="M121.07,153.43a64.44,64.44,0,0,0-6.81.08,60,60,0,0,1-13.26,0,25.63,25.63,0,0,0-4.11-.1,33,33,0,0,1,.88,5.36l32.4-1.35c0-1.49-.07-3.1-.1-4.84-.45,0-.91,0-1.43.06C126.08,152.71,123.64,153.45,121.07,153.43Z"/><path class="cls-11" d="M124.62,168a33.85,33.85,0,0,1-4.83.28c-1.29,0-2.48.42-3.77.4-4.21,0-8.42,0-12.62,0a51.22,51.22,0,0,1-6.11-.44c.52,6.1,2.51,4.84,8.31,6.54,2.74.81,16.94-.78,20-1.89,2.54-.91,3.72-2.6,4.24-5.32C128.13,167.72,126.34,167.68,124.62,168Z"/><path class="cls-4" d="M95.75,60.45A155,155,0,0,0,90,41.92"/><path class="cls-12" d="M97.2,60.05a166.65,166.65,0,0,0-5.72-18.53c-.66-1.8-3.56-1-2.89.79a169.63,169.63,0,0,1,5.72,18.54c.46,1.87,3.35,1.08,2.89-.8Z"/><path class="cls-4" d="M77.22,73.41c-3.44-4.06-9.72-6.5-13.12-10.84"/><path class="cls-12" d="M78.28,72.35c-3.83-4.28-9.45-6.4-13.12-10.84-1.23-1.48-3.34.65-2.12,2.13,3.68,4.44,9.3,6.56,13.11,10.83,1.29,1.44,3.41-.69,2.13-2.12Z"/><path class="cls-4" d="M65.24,96.21c1-.12-15.85-2.46-16.53-3.42"/><path class="cls-12" d="M65.64,97.66h0a1.52,1.52,0,0,0,.67-2.51c-1.47-1.42-5.52-1.29-7.38-1.61s-3.76-.64-5.63-1c-.83-.17-3.2-.46-3.57-.79-1.43-1.29-3.56.83-2.12,2.12,1.89,1.71,5.92,1.77,8.28,2.19,1.92.34,3.85.65,5.77,1,.7.12,1.45.33,2.16.38s1.13.6.36-.14l.67-2.51,0,0c-1.83.58-1.05,3.48.8,2.89Z"/><path class="cls-4" d="M123.69,60.29a77.84,77.84,0,0,0,3.42-16.53"/><path class="cls-12" d="M125.13,60.69a85.7,85.7,0,0,0,3.48-16.93c.2-1.92-2.8-1.91-3,0a81.7,81.7,0,0,1-3.37,16.14c-.58,1.84,2.32,2.63,2.89.79Z"/><path class="cls-4" d="M145.09,73.83c3.27-5.47,8.73-8.83,12.54-13.68"/><path class="cls-12" d="M146.39,74.59c3.25-5.21,8.47-8.66,12.31-13.38,1.2-1.49-.91-3.62-2.13-2.12-4,4.93-9.37,8.54-12.77,14-1,1.64,1.56,3.15,2.59,1.51Z"/><path class="cls-4" d="M153.33,91.31c3.58.48,12.76-5.51,16.54-8.43"/><path class="cls-12" d="M153.33,92.81c2.85.17,5.76-1.43,8.18-2.73a69,69,0,0,0,9.12-5.91c1.51-1.15,0-3.76-1.52-2.59a72.19,72.19,0,0,1-7.57,5c-2.36,1.37-5.38,3.35-8.21,3.18-1.93-.12-1.92,2.88,0,3Z"/><g class="cls-13"><path class="cls-14" d="M114.52,75.58c27.78-3.61,29.54,51.28,12,62.65-1.35-12.58,16.55-67.58-13.75-63.5"/></g><g class="cls-8"><path d="M190.34,427.94c0,25,.73,50.23-.1,75.28-.58,17.47,0,35-3.75,52-7.93-8.54-5.29-14.79-4.89-26.17.43-12.5-.46-25.23-.38-37.82.13-20.6-.63-45.5,5-65.47"/></g><g class="cls-15"><path d="M128.18,150.94C122.63,158,83,172,104.33,174.44c30.61,3.49,24.87-10.65,25-22.74"/></g><path class="cls-16" d="M275.22,261.23c-3.25,8.2-10.13,16.19-15.24,23.26s-21,20.57-23,28.35c-2.17,8.36,6.31,16.92,8.58,24.77,1.74,6,.73,12.87,3.34,18.62,1.7,3.75,6.28,5.67,7.66,9.47,2.17,6,1.36,13,3.16,19.24,2,6.95,7.81,13,8.24,20.7.62,10.93-2.75,13.44-13.51,5.91C245,405,245,395.28,239.35,385.91c-4.27-7.15-5-9.37-6.52-17.19-1.06-5.47-3.09-11-4.2-16.26-2.74-12.95,1.28-27.1-5.72-39.22-4.92-8.51-11.11-12.59-13.34-23.12-4-19,.1-45,12.86-60.16C234.58,215.53,254,212.3,272,212.34c7.76,0,38.4-1.32,31.51,14.88-2.86,6.73-17.53,7-20.18,16.35"/><path class="cls-17" d="M235.51,314.44c-3.26-1.94-12.44-2-15.17,0-8.56,6.29,28.6,6.07,17.25.28"/><path class="cls-9" d="M301.71,129.35c1.48-2.07,4.16-7.62,6.67-8.39l-3.57-1.65c2.12,3.15,1.63,8.55,1.69,12.16s-.05,7.36-.15,11c-.05,1.92,4.53,3.81,4.59,1.67.13-4.41.25-8.83.09-13.24-.13-3.65,0-8.56-2.12-11.71-.7-1-2.25-2.06-3.57-1.66-3.41,1-6,6.61-8,9.35-1.12,1.58,3.17,4.13,4.37,2.44Z"/><path class="cls-9" d="M378.86,122.74a13.31,13.31,0,0,1,2.5-2.58c1.35-.76.9-.7,1.75,1a13.29,13.29,0,0,1,1.08,7c-.23,3.71-1,9.77-4.39,12.11-1.85,1.28-4.39.78-2.63-2,.69-1.08.38-.9,1.71-.55a11.23,11.23,0,0,1,2.2,1.08c2.69,1.45,5.5,3.8,8.66,4.07,2.46.22,4.61-2.52,1.27-2.81-2.95-.25-6.25-3.48-9-4.6-2.47-1-5.74-1.72-8.08,0-2.07,1.54-3,5.24-1.07,7.22s6,1.51,8.44.59c6.86-2.64,8.86-13,7.74-19.46-.54-3.16-2.24-6.87-5.75-7.38-3.77-.55-6.49,2.45-8.78,5-1.68,1.82,3.12,2.7,4.34,1.37Z"/><path class="cls-10" d="M437.3,119.89c.69-.75,1.74-2.65,2.67-3,3.16-1.23,3.58,2.93.77,4.36-2.32,1.18-1.3,3.77,1,4.15,10.8,1.8,2.27,14.48-5.17,14.64-3.13.07-3.51,4.43-.32,4.36,6.77-.15,13.29-4.19,15.21-11s-3-11.31-9.4-12.38l1,4.16c4.35-2.22,6.84-8.64,2.65-12.33-5-4.38-9.28,1.08-12.48,4.52-2.08,2.24,2.27,4.54,4.15,2.52Z"/><path class="cls-9" d="M519.41,108.92c-3.72,1.83-6.57,5.52-9,8.72a54.29,54.29,0,0,0-6.82,10.71c-.42.94,1.88,3.65,2.56,4.19,1.29,1,4.92.53,6.45.58,2.54.09,5.09.15,7.63.16-.38,0-1.41-4.21-2.68-4.21-2.28,0-4.56-.07-6.83-.14-1.55-.05-5.7.49-7-.56l2.55,4.2a55.12,55.12,0,0,1,6.82-10.72c2.47-3.19,5.34-6.88,9-8.71.32-.16-2.06-4.53-2.68-4.22Z"/><path class="cls-9" d="M515,126.2c0,6.38-1.4,12.63-1.52,19-.05,3,4.67,1.84,4.72-.68.11-6.38,1.55-12.63,1.52-19,0-3-4.73-1.84-4.72.69Z"/><path class="cls-9" d="M521.87,189.07c-5.7-.2-12.72-3-18.26-.55-3.51,1.57-3.35,6.77-2.63,10.14,1.15,5.32,5.56,4.21,9.62,4.55,5.49.47,11.49,8,4.46,11.74-2.26,1.21-9.21.32-6.2-3.28,1.58-1.89-3.21-2.7-4.34-1.35-4.25,5.07,2.3,7.63,6.76,7.9,5.72.34,13.21-3.17,11.66-10.15-.74-3.34-3.79-5.65-6.85-6.78s-9,.39-10.11-2.94c-.42-1.24-.05-3.29,0-4.59,0-2.45.23-3,2.94-3.26,4.27-.33,8.73,1.23,13,1.38,3.05.11,3-2.71,0-2.81Z"/></g></g></svg>